HIERARCHY
ROOT root
{
	OFFSET 0.000000 0.000000 0.000000
	CHANNELS 6 Xposition Yposition Zposition Zrotation Yrotation Xrotation
	JOINT lhip
	{
		OFFSET 0.058581 -0.082280 -0.017664
		CHANNELS 3 Zrotation Yrotation Xrotation
		JOINT lknee
		{
			OFFSET 0.043451 -0.386469 0.008037
			CHANNELS 3 Zrotation Yrotation Xrotation
			JOINT lankle
			{
				OFFSET -0.014790 -0.426874 -0.037428
				CHANNELS 3 Zrotation Yrotation Xrotation
				JOINT ltoe
				{
					OFFSET 0.041054 -0.060286 0.122042
					CHANNELS 3 Zrotation Yrotation Xrotation
					End Site
					{
						OFFSET 0.000000 0.000000 0.000000
					}
				}
			}
		}
	}
	JOINT rhip
	{
		OFFSET -0.060310 -0.090513 -0.013543
		CHANNELS 3 Zrotation Yrotation Xrotation
		JOINT rknee
		{
			OFFSET -0.043257 -0.383688 -0.004843
			CHANNELS 3 Zrotation Yrotation Xrotation
			JOINT rankle
			{
				OFFSET 0.019056 -0.420046 -0.034562
				CHANNELS 3 Zrotation Yrotation Xrotation
				JOINT rtoe
				{
					OFFSET -0.034840 -0.062106 0.130323
					CHANNELS 3 Zrotation Yrotation Xrotation
					End Site
					{
						OFFSET 0.000000 0.000000 0.000000
					}
				}
			}
		}
	}
	JOINT lowerback
	{
		OFFSET 0.004439 0.124404 -0.038385
		CHANNELS 3 Zrotation Yrotation Xrotation
		JOINT upperback
		{
			OFFSET 0.004488 0.137956 0.026820
			CHANNELS 3 Zrotation Yrotation Xrotation
			JOINT chest
			{
				OFFSET -0.002265 0.056032 0.002855
				CHANNELS 3 Zrotation Yrotation Xrotation
				JOINT lowerneck
				{
					OFFSET -0.013390 0.211636 -0.033468
					CHANNELS 3 Zrotation Yrotation Xrotation
					JOINT upperneck
					{
						OFFSET 0.010113 0.088937 0.050410
						CHANNELS 3 Zrotation Yrotation Xrotation
						End Site
						{
							OFFSET 0.000000 0.000000 0.000000
						}
					}
				}
				JOINT lclavicle
				{
					OFFSET 0.071702 0.114000 -0.018898
					CHANNELS 3 Zrotation Yrotation Xrotation
					JOINT lshoulder
					{
						OFFSET 0.122921 0.045205 -0.019046
						CHANNELS 3 Zrotation Yrotation Xrotation
						JOINT lelbow
						{
							OFFSET 0.255332 -0.015649 -0.022946
							CHANNELS 3 Zrotation Yrotation Xrotation
							JOINT lwrist
							{
								OFFSET 0.265709 0.012698 -0.007375
								CHANNELS 3 Zrotation Yrotation Xrotation
								End Site
								{
									OFFSET 0.000000 0.000000 0.000000
								}
							}
						}
					}
				}
				JOINT rclavicle
				{
					OFFSET -0.082954 0.112472 -0.023707
					CHANNELS 3 Zrotation Yrotation Xrotation
					JOINT rshoulder
					{
						OFFSET -0.113228 0.046853 -0.008472
						CHANNELS 3 Zrotation Yrotation Xrotation
						JOINT relbow
						{
							OFFSET -0.260127 -0.014369 -0.031269
							CHANNELS 3 Zrotation Yrotation Xrotation
							JOINT rwrist
							{
								OFFSET -0.269108 0.006794 -0.006027
								CHANNELS 3 Zrotation Yrotation Xrotation
								End Site
								{
									OFFSET 0.000000 0.000000 0.000000
								}
							}
						}
					}
				}
			}
		}
	}
}
MOTION
Frames: 9
Frame Time: 0.033333
0.033045 -0.561955 0.987624 171.841669 2.615630 82.587200 5.221414 11.377127 9.159198 -3.629239 -6.564266 3.975083 2.164774 5.200371 -25.300258 0.000000 -0.000000 0.000000 4.287960 0.475051 1.723893 -1.565015 2.654229 15.042932 1.883113 -0.271391 -17.223996 0.000000 -0.000000 0.000000 3.630094 -3.366921 16.131464 -2.388985 0.864632 -9.079001 -0.172817 1.930923 -2.839393 -0.918319 -38.938080 23.669981 16.107139 -23.638347 8.465718 -23.096727 3.221244 10.738924 -67.822111 -0.804893 4.812826 15.655203 -37.714492 0.737028 6.507932 -5.556324 -22.310864 17.744520 11.831093 9.895508 67.067397 5.508994 4.200567 2.787504 22.469200 15.609796 1.756746 8.542663 -4.648233 
0.035487 -0.557531 0.986740 173.231299 2.783380 83.495957 5.562755 11.219761 8.263980 -4.003410 -7.247959 4.132170 2.822813 5.140688 -24.906635 0.000000 -0.000000 0.000000 4.489927 -1.049191 1.781506 -1.488749 3.520061 13.941870 1.299409 -1.273620 -17.291323 0.000000 -0.000000 0.000000 3.986473 -3.013729 13.238205 -2.362200 -0.131845 -7.478652 -0.311453 1.587225 -2.229462 -1.802765 -34.295382 21.968014 17.150045 -19.815781 6.954114 -23.415731 3.114129 10.860667 -67.177714 -0.397041 5.181352 14.637114 -38.943348 3.125280 8.538429 -4.202902 -24.358528 17.686779 11.223773 10.072762 67.020126 5.897323 4.582667 2.908324 22.416056 16.988011 0.737587 8.040759 -6.245576 
0.029591 -0.559507 0.985243 172.497608 2.248577 86.096967 3.039885 7.700775 6.123077 -3.550012 -6.768840 2.253572 4.211403 9.661883 -22.945726 0.000000 -0.000000 0.000000 2.935105 1.591811 -1.251886 0.014983 3.286357 14.202637 1.735154 -2.886915 -17.103658 0.000000 -0.000000 0.000000 5.591690 -2.461226 9.628008 -2.843810 0.280607 -7.120457 -1.881433 1.822827 1.234848 0.747285 -30.460901 13.866795 18.115847 -21.979332 7.208139 -23.548753 3.911003 7.523482 -66.578329 -0.592736 9.807550 14.386815 -38.956283 2.775409 12.618864 -3.121959 -25.963741 17.012841 9.707638 6.144222 67.154915 5.933353 8.996805 2.333173 22.132844 16.237399 -1.102551 7.803539 -7.446758 
0.027341 -0.563094 0.984568 171.193933 1.898849 86.963236 1.792141 5.859073 5.844919 -3.352037 -6.359430 0.686619 4.569732 12.796401 -21.768575 0.000000 -0.000000 0.000000 2.237477 3.857533 -2.714180 0.596969 3.040512 14.684023 2.148061 -3.674242 -17.287120 0.000000 -0.000000 0.000000 6.014311 -2.299674 9.299002 -3.546530 1.329416 -8.312903 -2.454592 2.588195 4.229855 2.519885 -23.870593 7.667104 20.566511 -20.955142 5.169785 -22.846543 3.170757 4.884400 -66.878447 -0.117498 13.335087 14.651323 -38.940366 2.048156 15.587260 -1.971470 -27.408227 16.950869 9.189303 2.658539 66.826485 5.387303 11.692901 2.425629 21.904046 15.203977 -1.278399 7.218941 -7.572472 
0.027972 -0.562475 0.984403 171.362280 1.931539 86.971225 1.914801 6.132576 5.824157 -3.405910 -6.235509 0.856722 4.592515 12.307803 -21.844130 0.000000 -0.000000 0.000000 2.335200 3.538069 -2.633228 0.485311 2.876610 14.614734 1.945489 -3.302939 -17.361522 0.000000 -0.000000 0.000000 5.965685 -2.215707 9.225440 -3.652614 1.215759 -8.193873 -2.462428 2.640647 3.755401 2.155750 -23.118860 8.560925 21.810909 -20.784347 4.903055 -22.418373 2.669754 5.384964 -67.437839 0.143899 12.960413 14.944758 -38.845752 1.963428 15.317953 -2.036311 -27.260501 17.175133 9.263521 3.313788 66.624753 5.458315 10.772151 2.812719 21.874745 15.830386 -1.131781 7.216989 -7.581062 
0.028785 -0.561228 0.984133 171.674286 2.027805 87.261719 2.068430 6.508413 5.520298 -3.397471 -6.173177 0.994401 4.586204 11.633087 -21.991333 0.000000 -0.000000 0.000000 2.498477 2.961587 -2.813467 0.370610 2.721436 14.512159 1.589812 -2.867499 -17.482231 0.000000 -0.000000 0.000000 6.271281 -2.291910 8.941324 -3.983046 0.953985 -8.359361 -2.725165 2.875175 3.070591 1.442905 -21.732518 9.829360 23.856621 -20.680271 4.465727 -21.708138 2.331324 6.218751 -68.136234 0.516623 12.209260 14.868468 -38.843914 2.560316 14.756543 -2.259973 -27.282549 17.531093 9.228211 4.531573 66.619954 5.742495 9.272490 3.296237 21.725075 17.067577 -1.131348 7.240511 -7.496007 
0.029230 -0.559780 0.984099 171.393709 2.062369 86.971160 2.138707 7.150700 6.095474 -3.267023 -6.182530 0.765450 4.430038 11.245108 -22.139918 0.000000 -0.000000 0.000000 2.604614 2.699975 -2.455745 0.279413 2.630911 14.496063 1.346995 -2.358339 -17.645225 0.000000 -0.000000 0.000000 6.588460 -2.314051 9.396664 -4.345125 1.045618 -8.829839 -2.871055 3.192303 2.826698 0.730996 -20.394705 10.157161 25.269612 -20.830504 4.104341 -21.282360 1.822300 6.828176 -68.732291 0.810513 11.456219 14.854258 -38.670975 2.792458 14.295958 -2.581762 -26.915197 17.688624 9.570057 5.218282 66.737547 5.609461 7.967074 3.597066 21.622112 18.124200 -1.418600 7.589943 -7.133688 
0.029828 -0.558683 0.983841 171.383499 2.057426 86.809757 2.194880 7.447768 6.395952 -3.204140 -6.104879 0.749249 4.312802 10.746971 -22.348372 0.000000 -0.000000 0.000000 2.664495 2.576000 -2.201167 0.180542 2.569592 14.450276 1.064084 -1.968928 -17.796375 0.000000 -0.000000 0.000000 6.715276 -2.323647 9.716721 -4.610427 0.951601 -9.106096 -3.052941 3.383126 2.568273 0.528771 -18.962947 9.917898 26.423123 -21.343878 4.179721 -20.747768 1.146142 7.338402 -69.566355 1.079822 10.805971 15.564279 -38.245147 2.218222 13.355865 -2.940349 -26.237412 17.920714 9.614441 6.002387 66.866667 5.900651 6.896102 3.822885 21.535581 19.089262 -0.994250 7.792644 -6.874729 
0.030454 -0.557841 0.983743 171.363209 2.090832 86.726025 2.261083 7.638801 6.544633 -3.141273 -6.121234 0.831805 4.313330 10.483171 -22.477918 0.000000 -0.000000 0.000000 2.737509 2.356927 -2.089041 0.185158 2.419572 14.450394 1.045163 -1.762812 -17.791351 0.000000 -0.000000 0.000000 6.919015 -2.290530 9.947163 -4.771447 0.974127 -9.407349 -3.187312 3.507149 2.589496 0.277100 -18.161749 9.724545 27.203067 -21.740816 4.222680 -20.377591 0.953262 7.471976 -69.881898 1.151356 10.477153 15.184170 -37.992986 2.467146 13.277885 -3.069479 -25.870536 17.820814 9.658627 6.076035 67.349312 5.810850 6.462319 3.722676 21.524239 19.272997 -1.098306 7.777993 -6.835809 
